# xmcd CD database file
#
# Track frame offsets:
#	150
#	25199
#	49311
#	72169
#	101612
#	127382
#	148348
#	171232
#	194810
#	209097
#	233246
#
# Disc length: 3459 seconds
#
# Revision: 0
# Processed by: cddbd v1.5.2PL0 Copyright (c) Steve Scherf et al.
# Submitted via: CDex 1.70beta3
#
DISCID=b80d810b
DTITLE=榊原大 - Seeds Of Life
DYEAR=2012
DGENRE=New Age
TTITLE0=Promising Sign
TTITLE1=飛行船のワルツ
TTITLE2=蜜
TTITLE3=Pray
TTITLE4=TIME-LINE
TTITLE5=工場夜景
TTITLE6=玄海
TTITLE7=アンカー
TTITLE8=Seeds
TTITLE9=理想の彼方
TTITLE10=Part Of Your World
EXTD=YEAR: 2012
EXTT0=
EXTT1=
EXTT2=
EXTT3=
EXTT4=
EXTT5=
EXTT6=
EXTT7=
EXTT8=
EXTT9=
EXTT10=
PLAYORDER=
